<svg preserveAspectRatio="none" width="100%" height="100%" overflow="visible" style="display: block;" viewBox="0 0 102 154" fill="none" xmlns="http://www.w3.org/2000/svg">
<path id="bg" fill-rule="evenodd" clip-rule="evenodd" d="M0 6.39999C0 4.15979 0 3.03968 0.435974 2.18404C0.819467 1.43139 1.43139 0.819467 2.18404 0.435974C3.03968 0 4.15979 0 6.4 0H95.6C97.8402 0 98.9603 0 99.816 0.435974C100.569 0.819467 101.181 1.43139 101.564 2.18404C102 3.03968 102 4.15979 102 6.4V147.6C102 149.84 102 150.96 101.564 151.816C101.181 152.569 100.569 153.181 99.816 153.564C98.9603 154 97.8402 154 95.6 154H6.4C4.15979 154 3.03968 154 2.18404 153.564C1.43139 153.181 0.819467 152.569 0.435974 151.816C0 150.96 0 149.84 0 147.6V6.39999Z" fill="var(--fill-0, white)"/>
</svg>
