<svg preserveAspectRatio="none" width="100%" height="100%" overflow="visible" style="display: block;" viewBox="0 0 63.9997 28" fill="none" xmlns="http://www.w3.org/2000/svg">
<g id="Combined Shape">
<mask id="path-1-inside-1_33_12223" fill="white">
<path d="M56 0C58.2091 0 60 1.79086 60 4V11.0449L63.5059 13.1055C64.1813 13.5023 64.1596 14.4869 63.4668 14.8525L60 16.6807V24C60 26.2091 58.2091 28 56 28H4C1.79087 28 9.95386e-06 26.2091 0 24V4C0 1.79086 1.79086 1.12745e-07 4 0H56Z"/>
</mask>
<path d="M56 0C58.2091 0 60 1.79086 60 4V11.0449L63.5059 13.1055C64.1813 13.5023 64.1596 14.4869 63.4668 14.8525L60 16.6807V24C60 26.2091 58.2091 28 56 28H4C1.79087 28 9.95386e-06 26.2091 0 24V4C0 1.79086 1.79086 1.12745e-07 4 0H56Z" fill="var(--fill-0, black)"/>
<path d="M60 4H60.5H60ZM60 11.0449H59.5V11.331L59.7466 11.476L60 11.0449ZM63.5059 13.1055L63.2525 13.5365L63.2526 13.5366L63.5059 13.1055ZM63.4668 14.8525L63.7 15.2948L63.7002 15.2947L63.4668 14.8525ZM60 16.6807L59.7668 16.2384L59.5 16.3791V16.6807H60ZM60 24L60.5 24V24H60ZM56 28V28.5V28.5V28ZM0 24H-0.5V24L0 24ZM4 0V-0.5V-0.5V0ZM56 0V0.5C57.933 0.5 59.5 2.067 59.5 4H60H60.5C60.5 1.51472 58.4853 -0.5 56 -0.5V0ZM60 4H59.5V11.0449H60H60.5V4H60ZM60 11.0449L59.7466 11.476L63.2525 13.5365L63.5059 13.1055L63.7592 12.6744L60.2534 10.6139L60 11.0449ZM63.5059 13.1055L63.2526 13.5366C63.5909 13.7354 63.5792 14.2279 63.2334 14.4103L63.4668 14.8525L63.7002 15.2947C64.74 14.7459 64.7717 13.2692 63.7591 12.6744L63.5059 13.1055ZM63.4668 14.8525L63.2336 14.4103L59.7668 16.2384L60 16.6807L60.2332 17.1229L63.7 15.2948L63.4668 14.8525ZM60 16.6807H59.5V24H60H60.5V16.6807H60ZM60 24L59.5 24C59.5 25.933 57.933 27.5 56 27.5V28V28.5C58.4853 28.5 60.5 26.4853 60.5 24L60 24ZM56 28V27.5H4V28V28.5H56V28ZM4 28V27.5C2.06701 27.5 0.500009 25.933 0.5 24L0 24L-0.5 24C-0.499989 26.4853 1.51472 28.5 4 28.5V28ZM0 24H0.5V4H0H-0.5V24H0ZM0 4H0.5C0.5 2.067 2.067 0.5 4 0.5V0V-0.5C1.51472 -0.5 -0.5 1.51472 -0.5 4H0ZM4 0V0.5H56V0V-0.5H4V0Z" fill="var(--stroke-0, white)" fill-opacity="0.6" mask="url(#path-1-inside-1_33_12223)"/>
</g>
</svg>
