<svg preserveAspectRatio="none" width="100%" height="100%" overflow="visible" style="display: block;" viewBox="0 0 11.8013 11.9925" fill="none" xmlns="http://www.w3.org/2000/svg">
<path id="Union" d="M11.0697 0.000976562V2.8291L11.0707 2.82812L11.0697 3.62891H7.44178V2.82812H9.81971C9.16897 2.04532 8.27809 1.44853 7.2201 1.16504C4.49978 0.436555 1.70408 2.05128 0.974981 4.77148C0.246104 7.49198 1.86007 10.2884 4.58045 11.0176C7.30113 11.7466 10.0985 10.1318 10.8275 7.41113C10.9679 6.88713 11.0211 6.36001 10.9965 5.8457H11.7963C11.8204 6.42843 11.7588 7.02507 11.6 7.61816C10.7566 10.7656 7.52087 12.6334 4.37342 11.79C1.22628 10.9465 -0.640737 7.71172 0.20252 4.56445C1.04597 1.41746 4.28002 -0.450291 7.42713 0.392578C8.56478 0.697411 9.53431 1.31607 10.2699 2.12891V0L11.0697 0.000976562Z" fill="var(--fill-0, #909090)" fill-opacity="0.4"/>
</svg>
