<svg preserveAspectRatio="none" width="100%" height="100%" overflow="visible" style="display: block;" viewBox="0 0 18.0952 18.0952" fill="none" xmlns="http://www.w3.org/2000/svg">
<path id="Fill 3" fill-rule="evenodd" clip-rule="evenodd" d="M5.88374 12.2727C5.88374 12.1593 5.79604 12.064 5.6826 12.0556L0.323626 11.6457C0.148938 11.6325 0 11.7703 0 11.9456V14.8527C0 16.6434 1.45179 18.0952 3.24322 18.0952H14.8527C16.6434 18.0952 18.0952 16.6434 18.0952 14.8527V8.78872C18.0952 8.17905 17.6255 7.67238 17.0172 7.62505L6.12315 6.79407C5.86077 6.76553 5.66242 6.54491 5.66242 6.28114V4.81333C5.66242 4.51963 5.91436 4.28927 6.20736 4.31571L11.7292 4.69084C12.002 4.71659 12.2108 4.94487 12.2108 5.21769V5.88722C12.2108 6.00136 12.2985 6.09601 12.4119 6.10436L17.7716 6.50872C17.9463 6.52194 18.0952 6.38414 18.0952 6.20875V3.24253C18.0952 1.45179 16.6434 0 14.8527 0H3.3156C1.48451 0 0 1.48451 0 3.3156V9.27729C0 9.88766 0.46978 10.395 1.07806 10.441L12.0584 11.2782C12.2721 11.3012 12.4328 11.48 12.4328 11.6944V13.2798C12.4328 13.5735 12.1809 13.8039 11.8886 13.7774L6.36465 13.4037C6.09253 13.3786 5.88374 13.1504 5.88374 12.8768V12.2727Z" fill="var(--fill-0, black)"/>
</svg>
