<svg preserveAspectRatio="none" width="100%" height="100%" overflow="visible" style="display: block;" viewBox="0 0 11.482 12.8333" fill="none" xmlns="http://www.w3.org/2000/svg">
<g id="adults_&#236;&#136;&#152;&#236;&#160;&#149;">
<path id="Vector" fill-rule="evenodd" clip-rule="evenodd" d="M5.74099 5.24521e-06C1.18003 5.24521e-06 0 1.47135 0 1.47135L0.00192486 5.42979C0.00192486 8.97756 2.43513 11.953 5.73842 12.8333H5.74356C9.04686 11.953 11.4801 8.97692 11.4801 5.42979L11.482 1.47135C11.482 1.47135 10.3013 5.24521e-06 5.74099 5.24521e-06Z" fill="var(--fill-0, #FF2F5D)"/>
<path id="Vector_2" d="M7.91009 7.33905L6.55473 6.43334V6.04793C6.73459 5.91946 6.88233 5.75245 6.9851 5.55974C7.08788 5.36704 7.13927 5.14864 7.13927 4.92381V4.24935C7.13927 3.4978 6.52261 2.88756 5.76464 2.88756C5.00667 2.88756 4.39001 3.4978 4.39001 4.25577V4.93024C4.39001 5.14864 4.4414 5.36704 4.54417 5.56616C4.64695 5.75887 4.79469 5.9323 4.97455 6.05435V6.43976L3.61919 7.34547C3.25947 7.58314 3.0475 7.98782 3.0475 8.4182V8.79076C3.0475 8.86142 3.10531 8.91923 3.17597 8.91923H8.34689C8.41754 8.91923 8.47536 8.86142 8.47536 8.79076V8.4182C8.47536 7.98782 8.2698 7.58314 7.91009 7.33905Z" fill="var(--fill-0, white)"/>
</g>
</svg>
