<svg preserveAspectRatio="none" width="100%" height="100%" overflow="visible" style="display: block;" viewBox="0 0 16.9981 17" fill="none" xmlns="http://www.w3.org/2000/svg">
<g id="Group 398">
<path id="Vector" fill-rule="evenodd" clip-rule="evenodd" d="M16.0637 4.62787C15.9597 4.42593 15.7057 4.36066 15.513 4.48101C15.055 4.76861 14.5074 4.92772 13.922 4.90426C12.5533 4.8502 11.4039 3.78238 11.256 2.42084C11.1999 1.90477 11.2866 1.41319 11.4803 0.979738C11.5721 0.774741 11.4671 0.534048 11.2539 0.460616C10.2595 0.117935 9.18152 -0.0452468 8.05761 0.0108469C3.84446 0.228083 0.377871 3.57025 0.0300902 7.77626C-0.398262 12.945 3.80469 17.2479 8.94083 16.9889C13.4038 16.7635 16.9673 13.0317 16.9979 8.56259C17.0081 7.14495 16.6685 5.80686 16.0637 4.62787Z" fill="var(--fill-0, #FFAA46)"/>
<path id="Fill 2" fill-rule="evenodd" clip-rule="evenodd" d="M8.54575 12.928C6.18388 12.928 4.2627 11.0068 4.2627 8.64493C4.2627 6.28344 6.18388 4.36206 8.54575 4.36206C9.87232 4.36206 11.1027 4.96273 11.9214 6.00993L10.3349 7.24942C9.90065 6.69408 9.24861 6.37524 8.54575 6.37524C7.29436 6.37524 6.27606 7.39354 6.27606 8.64493C6.27606 9.8965 7.29436 10.9146 8.54575 10.9146C9.24861 10.9146 9.90065 10.596 10.3349 10.0404L11.9214 11.2799C11.1027 12.3275 9.87232 12.928 8.54575 12.928" fill="var(--fill-0, #994A22)"/>
</g>
</svg>
