<svg preserveAspectRatio="none" width="100%" height="100%" overflow="visible" style="display: block;" viewBox="0 0 102.5 154.5" fill="none" xmlns="http://www.w3.org/2000/svg">
<path id="Mask" d="M95.8496 0.125C96.9676 0.125 97.814 0.124685 98.4873 0.179688C99.162 0.234816 99.6747 0.345757 100.123 0.574219C100.899 0.969681 101.53 1.60087 101.926 2.37695C102.154 2.82534 102.265 3.33796 102.32 4.0127C102.375 4.68596 102.375 5.53239 102.375 6.65039V147.85C102.375 148.968 102.375 149.814 102.32 150.487C102.265 151.162 102.154 151.675 101.926 152.123C101.53 152.899 100.899 153.53 100.123 153.926C99.6747 154.154 99.162 154.265 98.4873 154.32C97.814 154.375 96.9676 154.375 95.8496 154.375H6.65039C5.5324 154.375 4.68596 154.375 4.0127 154.32C3.33796 154.265 2.82534 154.154 2.37695 153.926C1.60087 153.53 0.969681 152.899 0.574219 152.123C0.345757 151.675 0.234816 151.162 0.179688 150.487C0.124685 149.814 0.125 148.968 0.125 147.85V6.65039C0.125 5.5324 0.124685 4.68596 0.179688 4.0127C0.234816 3.33796 0.345757 2.82534 0.574219 2.37695C0.969681 1.60087 1.60087 0.969681 2.37695 0.574219C2.82534 0.345757 3.33796 0.234816 4.0127 0.179688C4.68596 0.124685 5.53239 0.125 6.65039 0.125H95.8496Z" stroke="var(--stroke-0, black)" stroke-opacity="0.08" stroke-width="0.25"/>
</svg>
