<svg preserveAspectRatio="none" width="100%" height="100%" overflow="visible" style="display: block;" viewBox="0 0 15 16.6667" fill="none" xmlns="http://www.w3.org/2000/svg">
<path id="Fill 1" fill-rule="evenodd" clip-rule="evenodd" d="M9.06729 13.9961C9.06099 14.837 8.36232 15.5994 7.49982 15.5994C6.6381 15.5994 5.93865 14.837 5.93235 13.9961H1.2V12.0793H13.8012V13.9961H9.06729ZM2.91881 8.42588V6.57288C2.91881 4.35931 4.5636 2.48671 6.77359 2.1379V1.91372C6.77359 1.5171 7.09879 1.19651 7.49983 1.19651C7.90086 1.19651 8.22685 1.5171 8.22685 1.91372V2.1379C10.4361 2.4875 12.0808 4.35931 12.0808 6.57288V8.42509C12.0808 9.67454 12.7086 10.3243 13.1683 10.7962C13.1784 10.8064 13.2128 10.8409 13.2558 10.884H1.74541C1.77277 10.8566 1.80248 10.8268 1.80873 10.8197C2.28872 10.3267 2.91803 9.68159 2.91881 8.42588V8.42588ZM14.7049 10.8683C14.5905 10.7537 14.147 10.3073 14.1016 10.261C13.6727 9.81951 13.2648 9.4 13.2648 8.51382V6.59268C13.2648 4.04634 11.5791 1.86748 9.16119 1.15691C8.91308 0.482927 8.26198 0 7.4998 0C6.73761 0 6.08733 0.482927 5.83921 1.15691C3.4205 1.86585 1.73478 4.04472 1.73478 6.59268V8.51463C1.73396 9.40244 1.31558 9.83252 0.87205 10.2878C0.836373 10.3236 0.410686 10.7528 0.297169 10.8659C0.0912176 11.0724 -0.012569 11.3528 0.00121518 11.635V14.0244C0.00121518 14.5854 0.454471 15.0407 1.01476 15.0407H5.08676C5.49461 15.9854 6.43842 16.6667 7.4998 16.6667C8.56199 16.6667 9.50499 15.9854 9.91284 15.0407H13.9865C14.5467 15.0407 15 14.5854 15 14.0244V11.5854C15 11.3163 14.8938 11.0593 14.7049 10.8683Z" fill="var(--fill-0, white)"/>
</svg>
